<svg xmlns="http://www.w3.org/2000/svg" viewBox="0 0 512 512" fill="none">
  <defs>
    <linearGradient id="hb-spot1" x1="0%" y1="0%" x2="100%" y2="100%">
      <stop offset="0%" stop-color="#f472b6"/>
      <stop offset="50%" stop-color="#a78bfa"/>
      <stop offset="100%" stop-color="#38bdf8"/>
    </linearGradient>
    <linearGradient id="hb-spot2" x1="100%" y1="0%" x2="0%" y2="100%">
      <stop offset="0%" stop-color="#facc15"/>
      <stop offset="40%" stop-color="#fb923c"/>
      <stop offset="100%" stop-color="#ef4444"/>
    </linearGradient>
    <linearGradient id="hb-spot3" x1="0%" y1="100%" x2="100%" y2="0%">
      <stop offset="0%" stop-color="#22d3ee"/>
      <stop offset="50%" stop-color="#4ade80"/>
      <stop offset="100%" stop-color="#a3e635"/>
    </linearGradient>
    <radialGradient id="hb-glow1" cx="50%" cy="50%" r="50%">
      <stop offset="0%" stop-color="#fde047" stop-opacity="0.95"/>
      <stop offset="100%" stop-color="#f97316" stop-opacity="0.35"/>
    </radialGradient>
    <radialGradient id="hb-glow2" cx="50%" cy="50%" r="50%">
      <stop offset="0%" stop-color="#e879f9" stop-opacity="0.9"/>
      <stop offset="100%" stop-color="#6366f1" stop-opacity="0.25"/>
    </radialGradient>
    <radialGradient id="hb-glow3" cx="50%" cy="50%" r="50%">
      <stop offset="0%" stop-color="#34d399" stop-opacity="0.85"/>
      <stop offset="100%" stop-color="#0ea5e9" stop-opacity="0.2"/>
    </radialGradient>
    <linearGradient id="hb-arc" x1="0%" y1="50%" x2="100%" y2="50%">
      <stop offset="0%" stop-color="#ec4899"/>
      <stop offset="16%" stop-color="#8b5cf6"/>
      <stop offset="33%" stop-color="#3b82f6"/>
      <stop offset="50%" stop-color="#14b8a6"/>
      <stop offset="66%" stop-color="#84cc16"/>
      <stop offset="83%" stop-color="#eab308"/>
      <stop offset="100%" stop-color="#f97316"/>
    </linearGradient>
  </defs>
  <rect width="512" height="512" rx="112" fill="#ffffff"/>
  <circle cx="118" cy="118" r="52" fill="url(#hb-glow2)" opacity="0.85"/>
  <circle cx="402" cy="96" r="44" fill="url(#hb-glow1)" opacity="0.8"/>
  <circle cx="96" cy="392" r="48" fill="url(#hb-glow3)" opacity="0.82"/>
  <circle cx="420" cy="380" r="56" fill="url(#hb-spot1)" opacity="0.55"/>
  <ellipse cx="256" cy="72" rx="88" ry="28" fill="url(#hb-arc)" opacity="0.35" transform="rotate(-8 256 72)"/>
  <ellipse cx="72" cy="248" rx="30" ry="72" fill="url(#hb-spot2)" opacity="0.45"/>
  <ellipse cx="448" cy="256" rx="34" ry="76" fill="url(#hb-spot3)" opacity="0.42"/>
  <circle cx="168" cy="200" r="18" fill="#ef4444" opacity="0.75"/>
  <circle cx="352" cy="168" r="14" fill="#3b82f6" opacity="0.8"/>
  <circle cx="388" cy="248" r="12" fill="#eab308" opacity="0.85"/>
  <circle cx="130" cy="288" r="16" fill="#a855f7" opacity="0.72"/>
  <circle cx="200" cy="128" r="10" fill="#06b6d4" opacity="0.9"/>
  <circle cx="320" cy="340" r="20" fill="#f43f5e" opacity="0.65"/>
  <circle cx="248" cy="420" r="15" fill="#22c55e" opacity="0.78"/>
  <circle cx="420" cy="168" r="9" fill="#fde047" opacity="0.95"/>
  <circle cx="88" cy="168" r="11" fill="#fb923c" opacity="0.82"/>
  <path d="M380 320l28-8 12 26-32 6z" fill="#8b5cf6" opacity="0.55"/>
  <path d="M98 340l22 18-30 14 8-32z" fill="#14b8a6" opacity="0.5"/>
  <path d="M300 96l-18 24-20-22 38-2z" fill="#f472b6" opacity="0.5"/>
  <path d="M428 300l-24 20 8 28 16-48z" fill="#34d399" opacity="0.45"/>
  <circle cx="232" cy="152" r="5" fill="#fff" opacity="0.95"/>
  <circle cx="312" cy="124" r="4" fill="#fff" opacity="0.9"/>
  <circle cx="156" cy="356" r="4.5" fill="#fff" opacity="0.92"/>
  <circle cx="392" cy="312" r="5" fill="#fef08a" opacity="0.95"/>
  <circle cx="276" cy="388" r="4" fill="#fff" opacity="0.88"/>
  <text
    x="256"
    y="330"
    text-anchor="middle"
    font-family="system-ui, -apple-system, BlinkMacSystemFont, 'Segoe UI', sans-serif"
    font-size="268"
    font-weight="900"
    fill="#0f172a"
    letter-spacing="-8"
  >B</text>
</svg>
